<svg width="56" height="56" viewBox="0 0 56 56" fill="none" xmlns="http://www.w3.org/2000/svg">
<g filter="url(#filter0_d_1_163)">
<circle cx="28" cy="24" r="24" fill="white"/>
</g>
<path d="M22.7668 32.2191C22.4892 32.2186 22.2166 32.1496 21.9756 32.0189C21.4331 31.7273 21.0958 31.1612 21.0958 30.5467V18.1108C21.0958 17.4946 21.4331 16.9302 21.9756 16.6386C22.2223 16.5042 22.5025 16.435 22.787 16.4384C23.0715 16.4418 23.3498 16.5176 23.5929 16.6579L34.7986 23.02C35.0321 23.1589 35.2247 23.3517 35.3581 23.5805C35.4916 23.8093 35.5616 24.0664 35.5616 24.3279C35.5616 24.5893 35.4916 24.8465 35.3581 25.0753C35.2247 25.304 35.0321 25.4969 34.7986 25.6358L23.591 31.9996C23.3423 32.1422 23.0575 32.2181 22.7668 32.2191Z" fill="black"/>
<defs>
<filter id="filter0_d_1_163" x="0" y="0" width="56" height="56" filterUnits="userSpaceOnUse" color-interpolation-filters="sRGB">
<feFlood flood-opacity="0" result="BackgroundImageFix"/>
<feColorMatrix in="SourceAlpha" type="matrix" values="0 0 0 0 0 0 0 0 0 0 0 0 0 0 0 0 0 0 127 0" result="hardAlpha"/>
<feOffset dy="4"/>
<feGaussianBlur stdDeviation="2"/>
<feColorMatrix type="matrix" values="0 0 0 0 0 0 0 0 0 0 0 0 0 0 0 0 0 0 0.04 0"/>
<feBlend mode="normal" in2="BackgroundImageFix" result="effect1_dropShadow_1_163"/>
<feBlend mode="normal" in="SourceGraphic" in2="effect1_dropShadow_1_163" result="shape"/>
</filter>
</defs>
</svg>
